<mxfile host="app.diagrams.net" agent="Mozilla/5.0 (Windows NT 10.0; Win64; x64) AppleWebKit/537.36 (KHTML, like Gecko) Chrome/132.0.0.0 Safari/537.36" version="26.0.11">
  <diagram id="C5RBs43oDa-KdzZeNtuy" name="Page-1">
    <mxGraphModel dx="662" dy="928" grid="1" gridSize="10" guides="1" tooltips="1" connect="1" arrows="1" fold="1" page="1" pageScale="1" pageWidth="827" pageHeight="1169" math="0" shadow="0">
      <root>
        <mxCell id="WIyWlLk6GJQsqaUBKTNV-0" />
        <mxCell id="WIyWlLk6GJQsqaUBKTNV-1" parent="WIyWlLk6GJQsqaUBKTNV-0" />
        <mxCell id="nUN9CzndMbYEcvdysu9g-5" style="edgeStyle=orthogonalEdgeStyle;rounded=0;orthogonalLoop=1;jettySize=auto;html=1;entryX=0.5;entryY=0;entryDx=0;entryDy=0;" edge="1" parent="WIyWlLk6GJQsqaUBKTNV-1" source="nUN9CzndMbYEcvdysu9g-0" target="nUN9CzndMbYEcvdysu9g-1">
          <mxGeometry relative="1" as="geometry" />
        </mxCell>
        <mxCell id="nUN9CzndMbYEcvdysu9g-0" value="void han(int n, int start, int point, int temp)" style="shape=process;whiteSpace=wrap;html=1;backgroundOutline=1;" vertex="1" parent="WIyWlLk6GJQsqaUBKTNV-1">
          <mxGeometry x="264" y="535" width="300" height="50" as="geometry" />
        </mxCell>
        <mxCell id="nUN9CzndMbYEcvdysu9g-7" style="edgeStyle=orthogonalEdgeStyle;rounded=0;orthogonalLoop=1;jettySize=auto;html=1;entryX=0.5;entryY=0;entryDx=0;entryDy=0;" edge="1" parent="WIyWlLk6GJQsqaUBKTNV-1" source="nUN9CzndMbYEcvdysu9g-1" target="nUN9CzndMbYEcvdysu9g-2">
          <mxGeometry relative="1" as="geometry">
            <Array as="points">
              <mxPoint x="265" y="650" />
            </Array>
          </mxGeometry>
        </mxCell>
        <mxCell id="nUN9CzndMbYEcvdysu9g-12" style="edgeStyle=orthogonalEdgeStyle;rounded=0;orthogonalLoop=1;jettySize=auto;html=1;" edge="1" parent="WIyWlLk6GJQsqaUBKTNV-1" source="nUN9CzndMbYEcvdysu9g-1">
          <mxGeometry relative="1" as="geometry">
            <mxPoint x="410" y="920" as="targetPoint" />
            <Array as="points">
              <mxPoint x="570" y="650" />
              <mxPoint x="570" y="920" />
            </Array>
          </mxGeometry>
        </mxCell>
        <mxCell id="nUN9CzndMbYEcvdysu9g-1" value="if (n != 0)" style="rhombus;whiteSpace=wrap;html=1;" vertex="1" parent="WIyWlLk6GJQsqaUBKTNV-1">
          <mxGeometry x="341" y="620" width="146" height="60" as="geometry" />
        </mxCell>
        <mxCell id="nUN9CzndMbYEcvdysu9g-8" style="edgeStyle=orthogonalEdgeStyle;rounded=0;orthogonalLoop=1;jettySize=auto;html=1;entryX=0.5;entryY=0;entryDx=0;entryDy=0;" edge="1" parent="WIyWlLk6GJQsqaUBKTNV-1" source="nUN9CzndMbYEcvdysu9g-2" target="nUN9CzndMbYEcvdysu9g-4">
          <mxGeometry relative="1" as="geometry" />
        </mxCell>
        <mxCell id="nUN9CzndMbYEcvdysu9g-2" value="han(n - 1, start, temp, point);" style="rounded=0;whiteSpace=wrap;html=1;" vertex="1" parent="WIyWlLk6GJQsqaUBKTNV-1">
          <mxGeometry x="160" y="710" width="210" height="40" as="geometry" />
        </mxCell>
        <mxCell id="nUN9CzndMbYEcvdysu9g-11" style="edgeStyle=orthogonalEdgeStyle;rounded=0;orthogonalLoop=1;jettySize=auto;html=1;" edge="1" parent="WIyWlLk6GJQsqaUBKTNV-1" source="nUN9CzndMbYEcvdysu9g-3">
          <mxGeometry relative="1" as="geometry">
            <mxPoint x="410" y="920" as="targetPoint" />
            <Array as="points">
              <mxPoint x="265" y="920" />
              <mxPoint x="350" y="920" />
            </Array>
          </mxGeometry>
        </mxCell>
        <mxCell id="nUN9CzndMbYEcvdysu9g-3" value="han(n - 1, temp, point, start);" style="rounded=0;whiteSpace=wrap;html=1;" vertex="1" parent="WIyWlLk6GJQsqaUBKTNV-1">
          <mxGeometry x="165" y="840" width="200" height="40" as="geometry" />
        </mxCell>
        <mxCell id="nUN9CzndMbYEcvdysu9g-9" style="edgeStyle=orthogonalEdgeStyle;rounded=0;orthogonalLoop=1;jettySize=auto;html=1;entryX=0.5;entryY=0;entryDx=0;entryDy=0;" edge="1" parent="WIyWlLk6GJQsqaUBKTNV-1" source="nUN9CzndMbYEcvdysu9g-4" target="nUN9CzndMbYEcvdysu9g-3">
          <mxGeometry relative="1" as="geometry" />
        </mxCell>
        <mxCell id="nUN9CzndMbYEcvdysu9g-4" value="&lt;div&gt;cout &amp;lt;&amp;lt; start &amp;lt;&amp;lt; &quot;=&amp;gt;&quot; &amp;lt;&amp;lt; point &amp;lt;&amp;lt; endl&lt;/div&gt;" style="shape=parallelogram;perimeter=parallelogramPerimeter;whiteSpace=wrap;html=1;fixedSize=1;" vertex="1" parent="WIyWlLk6GJQsqaUBKTNV-1">
          <mxGeometry x="130" y="780" width="270" height="30" as="geometry" />
        </mxCell>
        <mxCell id="nUN9CzndMbYEcvdysu9g-10" value="return;" style="ellipse;whiteSpace=wrap;html=1;" vertex="1" parent="WIyWlLk6GJQsqaUBKTNV-1">
          <mxGeometry x="370" y="950" width="80" height="50" as="geometry" />
        </mxCell>
        <mxCell id="nUN9CzndMbYEcvdysu9g-13" value="" style="endArrow=classic;html=1;rounded=0;entryX=0.5;entryY=0;entryDx=0;entryDy=0;" edge="1" parent="WIyWlLk6GJQsqaUBKTNV-1" target="nUN9CzndMbYEcvdysu9g-10">
          <mxGeometry width="50" height="50" relative="1" as="geometry">
            <mxPoint x="410" y="920" as="sourcePoint" />
            <mxPoint x="440" y="720" as="targetPoint" />
          </mxGeometry>
        </mxCell>
        <mxCell id="nUN9CzndMbYEcvdysu9g-14" value="1" style="text;html=1;align=center;verticalAlign=middle;resizable=0;points=[];autosize=1;strokeColor=none;fillColor=none;" vertex="1" parent="WIyWlLk6GJQsqaUBKTNV-1">
          <mxGeometry x="311" y="618" width="30" height="30" as="geometry" />
        </mxCell>
        <mxCell id="nUN9CzndMbYEcvdysu9g-15" value="0" style="text;html=1;align=center;verticalAlign=middle;resizable=0;points=[];autosize=1;strokeColor=none;fillColor=none;" vertex="1" parent="WIyWlLk6GJQsqaUBKTNV-1">
          <mxGeometry x="495" y="618" width="30" height="30" as="geometry" />
        </mxCell>
        <mxCell id="nUN9CzndMbYEcvdysu9g-16" value="{" style="text;html=1;align=center;verticalAlign=middle;resizable=0;points=[];autosize=1;strokeColor=none;fillColor=none;" vertex="1" parent="WIyWlLk6GJQsqaUBKTNV-1">
          <mxGeometry x="235" y="648" width="30" height="30" as="geometry" />
        </mxCell>
        <mxCell id="nUN9CzndMbYEcvdysu9g-17" value="}" style="text;html=1;align=center;verticalAlign=middle;resizable=0;points=[];autosize=1;strokeColor=none;fillColor=none;" vertex="1" parent="WIyWlLk6GJQsqaUBKTNV-1">
          <mxGeometry x="408" y="920" width="30" height="30" as="geometry" />
        </mxCell>
        <mxCell id="nUN9CzndMbYEcvdysu9g-18" value="{" style="text;html=1;align=center;verticalAlign=middle;resizable=0;points=[];autosize=1;strokeColor=none;fillColor=none;" vertex="1" parent="WIyWlLk6GJQsqaUBKTNV-1">
          <mxGeometry x="385" y="588" width="30" height="30" as="geometry" />
        </mxCell>
        <mxCell id="nUN9CzndMbYEcvdysu9g-19" value="}" style="text;html=1;align=center;verticalAlign=middle;resizable=0;points=[];autosize=1;strokeColor=none;fillColor=none;" vertex="1" parent="WIyWlLk6GJQsqaUBKTNV-1">
          <mxGeometry x="408" y="1010" width="30" height="30" as="geometry" />
        </mxCell>
      </root>
    </mxGraphModel>
  </diagram>
</mxfile>
